<?xml version="1.0" encoding="utf-8"?>
<svg version="1.1" xmlns="http://www.w3.org/2000/svg" xmlns:xlink="http://www.w3.org/1999/xlink" x="0px" y="0px" viewBox="0 0 16 16" style="enable-background:new 0 0 16 16;" xml:space="preserve">
	<style>
	path {
		fill: #0d30b0;
	}
	</style>
<path d="M14.7,8.3L14.7,8.3c0-0.4,0-1.7,0-2C14.7,2,11.5,0,8,0C6.8,0,5.7,0.2,4.7,0.7C4.3,0.9,3.4,1.3,2.3,0.8
	c0,0.4,0.1,0.9,0.4,1.4c-0.9,1-1.4,2.4-1.4,4.1c0,0.4,0,1.6,0,2l0,0c-0.5,0.4-0.6,1.1-0.4,1.9c0.3,0.9,1.3,1.5,1.7,1.8
	c1,2.4,3,4,5.4,4s4.4-1.6,5.4-4c0.4-0.2,1.4-0.9,1.7-1.8C15.4,9.4,15.2,8.7,14.7,8.3z M3.7,4.4c1.1-1.3,1.5,2.4,5.4-0.3
	c1.4-1,1.9-1,3.1,0.3c1,1.1,0.9,2.9,0.9,3.4c-0.2-0.3-0.6-0.5-1.3-0.5c-0.5,0-1.6,0-2,0C9,7.3,8.4,7.5,8.3,8.5c-0.1,0-0.2,0-0.3,0
	c-0.1,0-0.2,0-0.3,0C7.6,7.5,7,7.3,6.2,7.3c-0.4,0-1.6,0-2,0c-0.7,0-1.1,0.2-1.3,0.5C2.8,7.3,2.8,5.5,3.7,4.4z M12.8,8.5
	c0,0.8-0.2,1.7-2.2,1.7c-0.5,0-1.2-0.1-1.5-0.4C8.9,9.6,8.8,9.3,8.8,8.8c0-0.8,0.2-1,1-1h2C12.8,7.9,12.8,8.2,12.8,8.5z M7.2,8.8
	c0,0.5-0.1,0.7-0.2,0.9c-0.3,0.3-1,0.4-1.5,0.4c-1.9,0-2.2-0.9-2.2-1.7c0-0.3,0-0.6,0.9-0.6h2C6.9,7.9,7.2,8.1,7.2,8.8z M8,15.2
	c-2,0-3.8-1.4-4.7-3.6l-0.1-0.1l-0.1-0.1c-0.3-0.2-1.2-0.7-1.5-1.4C1.5,9.4,1.6,9,1.8,8.9c0.1-0.1,0.3,0,0.5,0.1
	c0.1,0.1,0.9,1,0.9,1c0.5,0.5,1.2,0.8,2.3,0.8c1.9,0,2.3-0.8,2.3-1.7c0.1,0,0.2,0,0.2,0c0.1,0,0.2,0,0.2,0c0.1,0.8,0.4,1.7,2.3,1.7
	c1,0,1.8-0.2,2.3-0.8c0,0,0.8-0.9,0.9-1c0.1-0.1,0.3-0.2,0.5-0.1c0.2,0.1,0.3,0.5,0.1,1.1c-0.2,0.6-1.1,1.2-1.5,1.4l-0.1,0.1
	l-0.1,0.1C11.8,13.8,10,15.2,8,15.2z"/>
</svg>
