<svg xmlns="http://www.w3.org/2000/svg" viewBox="0 0 788 89">
	<symbol id="logo" viewBox="0 0 788 89">
        <g>
            <path fill="currentColor" d="M7.184,82.768C3.019,78.5,0,69.338,0,48.516c0-20.926,3.123-30.816,7.496-35.085c4.373-4.477,11.348-6.455,32.587-6.455
                c20.926,0,28.838,1.874,33.003,5.934c3.956,3.853,5.935,11.453,6.872,28.006c0.104,1.146-0.729,1.77-1.562,1.77L52.472,42.79
                c-1.25,0-1.666-0.417-1.77-1.666c-0.625-7.6-0.937-10.307-2.395-11.869c-1.145-1.25-3.332-1.978-8.017-1.978
                c-5.206,0-7.392,0.729-8.641,1.874c-1.562,1.562-2.603,5.414-2.603,18.948c0,14.784,0.937,17.387,2.499,18.948
                c1.249,1.249,3.54,1.979,8.745,1.979c4.789-0.104,6.976-0.729,8.225-1.979c1.354-1.354,1.666-3.54,2.187-13.326
                c0.104-1.145,0.729-1.562,1.77-1.562l25.923,0.104c1.146,0,1.562,0.833,1.562,1.874c-0.833,17.907-2.811,25.403-6.351,29.047
                c-4.373,4.372-12.389,6.143-33.523,6.143C19.781,89.328,11.556,87.245,7.184,82.768z"/>
            <path fill="currentColor" d="M90.285,83.185c-3.957-4.165-5.935-12.39-5.935-28.11c0-16.554,1.978-24.362,5.935-28.318
                c3.852-3.852,10.828-6.143,28.63-6.143c19.573,0,24.986,2.186,28.734,5.934c4.061,3.956,6.039,11.869,6.039,28.526
                c0,15.825-1.978,24.05-6.039,28.214c-3.748,3.853-9.162,6.039-28.734,6.039C101.113,89.328,94.137,87.141,90.285,83.185z
                M111.836,69.129c1.145,1.146,3.644,1.771,7.184,1.771c3.54,0,6.143-0.625,7.288-1.874c1.146-1.25,1.77-3.645,1.77-13.327
                c0-9.786-0.729-13.534-2.186-15.096c-1.146-1.146-3.54-1.77-6.872-1.77s-5.726,0.625-6.871,1.77
                c-1.562,1.562-2.187,5.31-2.187,15.096C109.962,65.486,110.586,67.88,111.836,69.129z"/>
            <path fill="currentColor" d="M159.716,86.204c-0.521-24.986-0.417-60.176,0-82.872c0-1.353,0.625-1.77,1.77-1.77h21.447c1.249,0,1.77,0.521,1.77,1.77
                c0.417,21.759,0.521,59.031,0,82.872c0,1.25-0.625,1.666-1.77,1.666h-21.447C160.237,87.87,159.716,87.349,159.716,86.204z"/>
            <path fill="currentColor" d="M192.251,1.666C192.355,0.625,192.875,0,194.021,0h22.176c0.937,0,1.562,0.417,1.666,1.666
                c0.208,3.852,0.208,10.619,0,13.847c-0.104,1.354-0.729,1.666-1.666,1.666h-22.176c-1.145,0-1.666-0.521-1.77-1.562
                C192.147,12.285,192.042,6.039,192.251,1.666z M192.459,86.204c-0.312-15.304-0.312-46.121,0-62.362c0-1.249,0.625-1.77,1.874-1.77
                h21.655c1.249,0,1.77,0.521,1.77,1.77c0.312,16.45,0.208,46.746,0,62.362c0,1.25-0.625,1.666-1.77,1.666h-21.655
                C193.083,87.87,192.459,87.349,192.459,86.204z"/>
            <path fill="currentColor" d="M225.128,86.412c0-7.392-0.104-17.073-0.104-28.838c0-9.682,0.104-23.633,0.312-33.94c0-1.041,0.521-1.562,1.354-1.562
                h20.51c1.041,0,1.458,0.625,1.562,1.666l0.312,3.02c0.104,0.937,0.417,1.562,1.25,1.562c1.249,0,2.29-1.666,4.477-3.644
                c2.915-2.603,5.726-3.956,14.68-3.956c10.099,0,15.2,1.354,18.115,4.373c3.852,3.748,4.477,9.682,4.477,24.154
                c0,21.446-0.208,29.983-0.208,37.167c0,1.25-0.729,1.458-1.354,1.458h-22.904c-0.729,0-1.354-0.208-1.354-1.458
                c0-7.287,0.208-17.49,0.208-31.128c0-8.85-0.208-10.724-1.353-11.869c-1.042-1.042-2.083-1.354-5.102-1.354
                c-3.852-0.104-5.622,0.625-7.288,2.186c-1.666,1.77-2.187,4.894-2.187,13.222c0,11.765,0.104,20.302,0.208,28.942
                c0,1.146-0.625,1.458-1.458,1.458h-22.8C225.44,87.87,225.128,87.245,225.128,86.412z"/>
            <path fill="currentColor" d="M322.263,86.516c-0.521-19.781-0.312-58.198,0.312-76.521c0-1.145,0.521-1.562,1.77-1.562h24.466
                c1.145,0,1.562,0.417,1.562,1.354c0.104,6.976-0.104,20.718,0.417,26.965c0,1.145,0.521,1.562,1.978,1.562h15.825
                c1.354,0,1.874-0.417,1.978-1.562c0.312-7.496,0.208-19.052,0.104-26.965c0-0.937,0.625-1.354,1.77-1.354h24.674
                c1.146,0,1.562,0.417,1.562,1.458c0.417,18.428,0.729,57.574,0.417,76.625c0,0.938-0.521,1.354-1.562,1.354h-25.507
                c-1.145,0-1.562-0.416-1.562-1.458c0.208-7.184,0.312-18.115,0.104-25.298c-0.104-1.146-0.625-1.458-1.978-1.458h-15.617
                c-1.353,0-1.874,0.312-1.978,1.354c-0.312,7.287-0.312,19.052-0.208,25.507c0,0.938-0.521,1.354-1.562,1.354h-25.299
                C322.784,87.87,322.263,87.454,322.263,86.516z"/>
            <path fill="currentColor" d="M411.131,83.185c-3.956-4.165-5.935-12.39-5.935-28.11c0-16.554,1.979-24.362,5.935-28.318
                c3.852-3.852,10.828-6.143,28.63-6.143c19.573,0,24.987,2.186,28.735,5.934c4.06,3.956,6.038,11.869,6.038,28.526
                c0,15.825-1.979,24.05-6.038,28.214c-3.748,3.853-9.162,6.039-28.735,6.039C421.959,89.328,414.983,87.141,411.131,83.185z
                M432.682,69.129c1.146,1.146,3.644,1.771,7.184,1.771s6.143-0.625,7.288-1.874c1.145-1.25,1.77-3.645,1.77-13.327
                c0-9.786-0.729-13.534-2.187-15.096c-1.145-1.146-3.539-1.77-6.871-1.77c-3.331,0-5.726,0.625-6.871,1.77
                c-1.562,1.562-2.187,5.31-2.187,15.096C430.808,65.486,431.433,67.88,432.682,69.129z"/>
            <path fill="currentColor" d="M490.015,86.1c-4.269-14.367-11.868-44.872-14.367-61.634c-0.312-1.77,0.312-2.395,1.979-2.395
                c4.997-0.104,18.115-0.104,23.528,0c1.666,0,2.083,0.625,2.395,2.186c1.146,7.08,3.853,19.573,5.206,26.444
                c0.312,1.354,0.416,1.666,1.146,1.666c0.729,0,1.041-0.208,1.457-1.562c1.458-6.247,5.622-19.156,7.704-26.652
                c0.417-1.458,1.041-1.978,2.915-2.082c4.581-0.104,13.431-0.104,17.595,0c1.562,0.104,2.395,0.521,2.812,2.082
                c1.562,6.455,5.622,19.781,7.287,26.652c0.417,1.354,0.521,1.666,1.354,1.666c0.625,0,0.729-0.417,0.938-1.562
                c1.562-7.08,4.164-18.532,5.622-26.548c0.312-1.77,1.041-2.187,2.707-2.291c4.164-0.104,13.326-0.104,17.698,0
                c1.666,0.104,1.979,0.625,1.771,2.291c-2.499,16.658-10.62,50.077-13.951,61.633c-0.417,1.249-1.041,1.874-2.499,1.874
                c-8.433,0.312-17.074,0.312-24.986,0c-1.249,0-1.979-0.416-2.499-1.77c-3.331-9.267-7.392-20.719-9.161-27.902
                c-0.417-1.25-0.729-1.562-1.458-1.562c-0.521,0-0.833,0.312-1.249,1.666c-1.979,7.704-5.935,19.156-8.642,27.901
                c-0.416,1.25-1.249,1.666-2.498,1.666c-6.247,0.312-13.951,0.312-20.302,0C490.953,87.87,490.328,87.349,490.015,86.1z"/>
            <path fill="currentColor" d="M586.933,83.809c-3.645-3.748-6.143-12.701-6.143-28.942c0-16.45,2.707-24.362,6.351-28.214
                c4.061-4.164,10.411-5.934,28.942-5.934c17.491,0,24.675,1.666,28.734,5.726c4.061,4.06,5.935,12.597,5.935,31.545
                c0,1.25-0.624,1.978-1.77,1.978h-42.894c0.208,6.976,0.729,9.579,2.082,10.932c1.146,1.145,3.852,1.77,8.225,1.77
                c4.789,0,6.247-0.521,7.288-1.562c0.729-0.729,1.041-1.562,1.354-4.686c0.312-1.145,0.937-1.77,2.29-1.77
                c7.08-0.104,16.658,0.104,21.447,0.208c1.354,0.104,1.77,1.041,1.665,2.083c-0.937,9.474-2.186,14.263-5.413,17.386
                c-3.853,3.748-9.995,4.998-28.214,4.998C598.281,89.328,590.993,87.974,586.933,83.809z M624.933,46.746
                c-0.312-5.414-0.833-7.496-1.77-8.433c-1.146-1.041-3.02-1.562-7.496-1.562c-4.373,0-6.247,0.625-7.184,1.562
                c-1.041,1.041-1.771,3.019-2.187,8.537L624.933,46.746z"/>
            <path fill="currentColor" d="M656.542,86.204c-0.521-24.986-0.417-60.176,0-82.872c0-1.353,0.625-1.77,1.77-1.77h21.447c1.249,0,1.77,0.521,1.77,1.77
                c0.417,21.759,0.521,59.031,0,82.872c0,1.25-0.625,1.666-1.77,1.666h-21.447C657.063,87.87,656.542,87.349,656.542,86.204z"/>
            <path fill="currentColor" d="M689.253,86.204c-0.521-24.986-0.417-60.176,0-82.872c0-1.353,0.625-1.77,1.77-1.77h21.447c1.249,0,1.77,0.521,1.77,1.77
                c0.417,21.759,0.521,59.031,0,82.872c0,1.25-0.625,1.666-1.77,1.666h-21.447C689.774,87.87,689.253,87.349,689.253,86.204z"/>
            <path fill="currentColor" d="M724.235,83.081c-2.707-2.811-3.853-6.455-4.373-14.575c0-1.146,0.729-1.666,2.082-1.666
                c7.496-0.104,15.2,0.104,21.968,0.312c1.146,0,1.77,0.416,1.979,1.457c0.312,2.603,0.624,3.54,1.457,4.373s2.187,1.354,6.351,1.354
                c5.414,0,6.976-0.521,7.913-1.354c0.624-0.625,0.832-1.562,0.832-3.332c0-2.082-0.208-2.915-1.145-3.852
                c-1.146-1.146-2.499-1.458-14.68-2.499c-14.055-1.249-19.573-2.395-22.592-5.518c-3.02-3.02-4.165-8.017-4.165-16.346
                c0-7.184,1.458-12.181,4.269-14.992c3.436-3.54,10.203-5.622,29.464-5.622c20.405,0,26.132,2.291,29.463,5.726
                c2.707,2.603,3.748,6.247,4.477,12.389c0.312,1.77-0.312,2.083-1.978,2.083c-6.56,0.104-14.888,0.208-21.655,0.104
                c-0.937,0-1.666-0.208-1.979-1.146c-0.312-2.082-0.624-2.811-1.145-3.436c-0.729-0.625-2.082-1.354-7.601-1.354
                c-5.205,0-6.455,0.521-7.184,1.354c-0.624,0.625-0.937,1.562-0.937,3.228c0,1.562,0.208,2.291,0.937,3.019
                c1.25,1.146,3.228,1.25,13.847,1.978c14.784,1.042,20.094,1.874,23.529,5.206c2.915,3.02,4.373,8.329,4.373,16.971
                c0,8.016-1.458,13.638-4.478,16.657c-3.748,3.748-9.682,5.518-28.838,5.518C734.646,89.119,727.67,86.829,724.235,83.081z"/>
        </g>
    </symbol>
</svg>